<svg xmlns="http://www.w3.org/2000/svg" viewBox="0 0 610 550" width="38" height="35" preserveAspectRatio="xMidYMid meet" style="transform: translate3d(0px, 0px, 0px); content-visibility: visible;"><defs><clipPath id="__lottie_element_11"><rect width="610" height="550" x="0" y="0"></rect></clipPath><clipPath id="__lottie_element_13"><path d="M0,0 L800,0 L800,1204 L0,1204z"></path></clipPath><filter id="__lottie_element_21" x="-100%" y="-100%" width="300%" height="300%"><feGaussianBlur result="filter_result_0" stdDeviation="17.07 17.07" edgeMode="wrap"></feGaussianBlur></filter></defs><g clip-path="url(#__lottie_element_11)"><g clip-path="url(#__lottie_element_13)" transform="matrix(1,0,0,1,-99,-98)" opacity="1" style="display: block;"><g transform="matrix(1,0,0,1,100,78)" opacity="1" style="display: block;"><g opacity="1" transform="matrix(1,0,0,1,304.010009765625,293.0159912109375)"><path fill="rgb(236,28,36)" fill-opacity="1" d=" M234.25599670410156,-247.52099609375 C234.25599670410156,-247.52099609375 0.37400001287460327,-140.77999877929688 0.37400001287460327,-140.77999877929688 C0.37400001287460327,-140.77999877929688 -233.50799560546875,-247.52099609375 -233.50799560546875,-247.52099609375 C-249.9149932861328,-256.4230041503906 -272.5379943847656,-243.63600158691406 -272.5379943847656,-220.77200317382812 C-272.5379943847656,-220.77200317382812 -272.5379943847656,224.91700744628906 -272.5379943847656,224.91700744628906 C-272.5379943847656,241.99600219726562 -262.30499267578125,255.9149932861328 -248.41900634765625,256.3420104980469 C-247.781005859375,256.4230041503906 -247.13499450683594,256.4230041503906 -246.4969940185547,256.3420104980469 C-246.4969940185547,256.3420104980469 -245.10800170898438,256.3420104980469 -245.10800170898438,256.3420104980469 C-245.10800170898438,256.3420104980469 -91.8290023803711,240.43800354003906 -91.8290023803711,240.43800354003906 C-91.8290023803711,240.43800354003906 -120.86100006103516,199.08599853515625 -120.86100006103516,199.08599853515625 C-133.55099487304688,181.38800048828125 -118.16899871826172,166.01699829101562 -101.89099884033203,171.9949951171875 C-98.62200164794922,173.19000244140625 -95.07599639892578,171.61099243164062 -91.89299774169922,172.4429931640625 C-91.89299774169922,172.4429931640625 -130.3459930419922,42.816001892089844 -130.3459930419922,42.816001892089844 C-130.49600219726562,42.36800003051758 -130.62399291992188,41.91999816894531 -130.7519989013672,41.47100067138672 C-130.7519989013672,41.47100067138672 -131.05099487304688,40.48899841308594 -131.05099487304688,40.48899841308594 C-131.05099487304688,40.48899841308594 -131.05099487304688,40.189998626708984 -131.05099487304688,40.189998626708984 C-132.09800720214844,34.928001403808594 -131.2010040283203,29.46500015258789 -128.52699279785156,24.812999725341797 C-125.85199737548828,20.16200065612793 -121.58000183105469,16.63599967956543 -116.50399780273438,14.890999794006348 C-111.427001953125,13.145000457763672 -105.88899993896484,13.29699993133545 -100.91600036621094,15.317999839782715 C-95.94300079345703,17.34000015258789 -91.87200164794922,21.094999313354492 -89.45700073242188,25.886999130249023 C-89.45700073242188,25.886999130249023 -89.45700073242188,26.07900047302246 -89.45700073242188,26.07900047302246 C-89.09400177001953,26.80500030517578 -45.34299850463867,134.67799377441406 -45.34299850463867,134.67799377441406 C-44.323001861572266,129.20899963378906 -41.3849983215332,124.28299713134766 -37.05699920654297,120.78500366210938 C-32.729000091552734,117.28800201416016 -27.29400062561035,115.4469985961914 -21.729999542236328,115.59300231933594 C-16.166000366210938,115.73899841308594 -10.835000038146973,117.86399841308594 -6.697999954223633,121.58599853515625 C-2.561000108718872,125.30699920654297 0.11400000005960464,130.3800048828125 0.843999981880188,135.8939971923828 C1.6150000095367432,130.21800231933594 4.435999870300293,125.01799774169922 8.776000022888184,121.2750015258789 C13.114999771118164,117.53199768066406 18.674999237060547,115.50399780273438 24.408000946044922,115.57099914550781 C35.83599853515625,115.57099914550781 44.70199966430664,125.66899871826172 46.68899917602539,136.5570068359375 C46.68899917602539,136.5570068359375 72.68800354003906,63.332000732421875 72.68800354003906,63.332000732421875 C74.48799896240234,58.430999755859375 77.9530029296875,54.319000244140625 82.47699737548828,51.70899963378906 C87.00199890136719,49.099998474121094 92.29900360107422,48.1609992980957 97.44599914550781,49.055999755859375 C102.59200286865234,49.95000076293945 107.26100158691406,52.62099838256836 110.63800048828125,56.60300064086914 C114.01599884033203,60.58599853515625 115.88700103759766,65.6259994506836 115.9260025024414,70.84600067138672 C115.9260025024414,70.84600067138672 115.9260025024414,71.52999877929688 115.9260025024414,71.52999877929688 C115.9260025024414,71.52999877929688 92.76899719238281,240.28799438476562 92.76899719238281,240.28799438476562 C92.76899719238281,240.28799438476562 245.8769989013672,256.1929931640625 245.8769989013672,256.1929931640625 C245.8769989013672,256.1929931640625 247.26499938964844,256.1929931640625 247.26499938964844,256.1929931640625 C247.9029998779297,256.27301025390625 248.5500030517578,256.27301025390625 249.18699645996094,256.1929931640625 C263.072998046875,255.76499938964844 272.5379943847656,241.9320068359375 272.5379943847656,224.83200073242188 C272.5379943847656,224.83200073242188 272.5379943847656,-220.8780059814453 272.5379943847656,-220.8780059814453 C272.5159912109375,-243.7209930419922 250.66299438476562,-256.4230041503906 234.25599670410156,-247.52099609375z"></path></g></g><g filter="url(#__lottie_element_21)" transform="matrix(1,0,0,1,100,82.5)" opacity="1" style="display: block;"><g opacity="1" transform="matrix(1,0,0,1,0,0)"><path stroke-linecap="round" stroke-linejoin="round" fill-opacity="0" stroke="rgb(255,255,255)" stroke-opacity="1" stroke-width="4" d="M0 0"></path></g><g opacity="1" transform="matrix(1,0,0,1,304.010009765625,293.0159912109375)"><path stroke-linecap="butt" stroke-linejoin="miter" fill-opacity="0" stroke-miterlimit="10" stroke="rgb(236,28,36)" stroke-opacity="1" stroke-width="0" d=" M-92.77799987792969,240.53599548339844 C-92.15499877929688,240.4720001220703 -91.8290023803711,240.43800354003906 -91.8290023803711,240.43800354003906 C-91.8290023803711,240.43800354003906 -120.86100006103516,199.08599853515625 -120.86100006103516,199.08599853515625 C-133.55099487304688,181.38800048828125 -118.16899871826172,166.01699829101562 -101.89099884033203,171.9949951171875 C-98.62200164794922,173.19000244140625 -95.07599639892578,171.61099243164062 -91.89299774169922,172.4429931640625 C-91.89299774169922,172.4429931640625 -130.3459930419922,42.816001892089844 -130.3459930419922,42.816001892089844 C-130.49600219726562,42.36800003051758 -130.62399291992188,41.91999816894531 -130.7519989013672,41.47100067138672 C-130.7519989013672,41.47100067138672 -131.05099487304688,40.48899841308594 -131.05099487304688,40.48899841308594 C-131.05099487304688,40.48899841308594 -131.05099487304688,40.189998626708984 -131.05099487304688,40.189998626708984 C-132.09800720214844,34.928001403808594 -131.2010040283203,29.46500015258789 -128.52699279785156,24.812999725341797 C-125.85199737548828,20.16200065612793 -121.58000183105469,16.63599967956543 -116.50399780273438,14.890999794006348 C-111.427001953125,13.145000457763672 -105.88899993896484,13.29699993133545 -100.91600036621094,15.317999839782715 C-95.94300079345703,17.34000015258789 -91.87200164794922,21.094999313354492 -89.45700073242188,25.886999130249023 C-89.45700073242188,25.886999130249023 -89.45700073242188,26.07900047302246 -89.45700073242188,26.07900047302246 C-89.09400177001953,26.80500030517578 -45.34299850463867,134.67799377441406 -45.34299850463867,134.67799377441406 C-44.323001861572266,129.20899963378906 -41.3849983215332,124.28299713134766 -37.05699920654297,120.78500366210938 C-32.729000091552734,117.28800201416016 -27.29400062561035,115.4469985961914 -21.729999542236328,115.59300231933594 C-16.166000366210938,115.73899841308594 -10.835000038146973,117.86399841308594 -6.697999954223633,121.58599853515625 C-2.561000108718872,125.30699920654297 0.11400000005960464,130.3800048828125 0.843999981880188,135.8939971923828 C1.6150000095367432,130.21800231933594 4.435999870300293,125.01799774169922 8.776000022888184,121.2750015258789 C13.114999771118164,117.53199768066406 18.674999237060547,115.50399780273438 24.408000946044922,115.57099914550781 C35.83599853515625,115.57099914550781 44.70199966430664,125.66899871826172 46.68899917602539,136.5570068359375 C46.68899917602539,136.5570068359375 72.68800354003906,63.332000732421875 72.68800354003906,63.332000732421875 C74.48799896240234,58.430999755859375 77.9530029296875,54.319000244140625 82.47699737548828,51.70899963378906 C87.00199890136719,49.099998474121094 92.29900360107422,48.1609992980957 97.44599914550781,49.055999755859375 C102.59200286865234,49.95000076293945 107.26100158691406,52.62099838256836 110.63800048828125,56.60300064086914 C114.01599884033203,60.58599853515625 115.88700103759766,65.6259994506836 115.9260025024414,70.84600067138672 C115.9260025024414,70.84600067138672 115.9260025024414,71.52999877929688 115.9260025024414,71.52999877929688 C115.9260025024414,71.52999877929688 92.76899719238281,240.28799438476562 92.76899719238281,240.28799438476562 C92.76899719238281,240.28799438476562 245.8769989013672,256.1929931640625 245.8769989013672,256.1929931640625 C245.8769989013672,256.1929931640625 247.26499938964844,256.1929931640625 247.26499938964844,256.1929931640625 C247.9029998779297,256.27301025390625 248.5500030517578,256.27301025390625 249.18699645996094,256.1929931640625 C263.072998046875,255.76499938964844 272.5379943847656,241.9320068359375 272.5379943847656,224.83200073242188 C272.5379943847656,224.83200073242188 272.5379943847656,-220.8780059814453 272.5379943847656,-220.8780059814453 C272.5159912109375,-243.7209930419922 250.66299438476562,-256.4230041503906 234.25599670410156,-247.52099609375 C234.25599670410156,-247.52099609375 234.25599670410156,-247.52099609375 234.25599670410156,-247.52099609375 C234.25599670410156,-247.52099609375 0.37400001287460327,-140.77999877929688 0.37400001287460327,-140.77999877929688 C0.37400001287460327,-140.77999877929688 -233.50799560546875,-247.52099609375 -233.50799560546875,-247.52099609375 C-249.9149932861328,-256.4230041503906 -272.5379943847656,-243.63600158691406 -272.5379943847656,-220.77200317382812 C-272.5379943847656,-220.77200317382812 -272.5379943847656,224.91700744628906 -272.5379943847656,224.91700744628906 C-272.5379943847656,241.99600219726562 -262.30499267578125,255.9149932861328 -248.41900634765625,256.3420104980469 C-247.781005859375,256.4230041503906 -247.13499450683594,256.4230041503906 -246.4969940185547,256.3420104980469 C-246.4969940185547,256.3420104980469 -245.10800170898438,256.3420104980469 -245.10800170898438,256.3420104980469 C-245.10800170898438,256.3420104980469 -105.64900207519531,241.8719940185547 -92.77799987792969,240.53599548339844"></path></g></g><g transform="matrix(1.047114372253418,0,0,1.047114372253418,85.7056884765625,65.11395263671875)" opacity="0.0016869365367723787" style="display: none;"><g opacity="1" transform="matrix(1,0,0,1,304.010009765625,293.0159912109375)"><path stroke-linecap="round" stroke-linejoin="miter" fill-opacity="0" stroke-miterlimit="4" stroke="rgb(236,28,36)" stroke-opacity="1" stroke-width="0" d=" M-92.77799987792969,240.53599548339844 C-92.15499877929688,240.4720001220703 -91.8290023803711,240.43800354003906 -91.8290023803711,240.43800354003906 C-91.8290023803711,240.43800354003906 -120.86100006103516,199.08599853515625 -120.86100006103516,199.08599853515625 C-133.55099487304688,181.38800048828125 -118.16899871826172,166.01699829101562 -101.89099884033203,171.9949951171875 C-98.62200164794922,173.19000244140625 -95.07599639892578,171.61099243164062 -91.89299774169922,172.4429931640625 C-91.89299774169922,172.4429931640625 -130.3459930419922,42.816001892089844 -130.3459930419922,42.816001892089844 C-130.49600219726562,42.36800003051758 -130.62399291992188,41.91999816894531 -130.7519989013672,41.47100067138672 C-130.7519989013672,41.47100067138672 -131.05099487304688,40.48899841308594 -131.05099487304688,40.48899841308594 C-131.05099487304688,40.48899841308594 -131.05099487304688,40.189998626708984 -131.05099487304688,40.189998626708984 C-132.09800720214844,34.928001403808594 -131.2010040283203,29.46500015258789 -128.52699279785156,24.812999725341797 C-125.85199737548828,20.16200065612793 -121.58000183105469,16.63599967956543 -116.50399780273438,14.890999794006348 C-111.427001953125,13.145000457763672 -105.88899993896484,13.29699993133545 -100.91600036621094,15.317999839782715 C-95.94300079345703,17.34000015258789 -91.87200164794922,21.094999313354492 -89.45700073242188,25.886999130249023 C-89.45700073242188,25.886999130249023 -89.45700073242188,26.07900047302246 -89.45700073242188,26.07900047302246 C-89.09400177001953,26.80500030517578 -45.34299850463867,134.67799377441406 -45.34299850463867,134.67799377441406 C-44.323001861572266,129.20899963378906 -41.3849983215332,124.28299713134766 -37.05699920654297,120.78500366210938 C-32.729000091552734,117.28800201416016 -27.29400062561035,115.4469985961914 -21.729999542236328,115.59300231933594 C-16.166000366210938,115.73899841308594 -10.835000038146973,117.86399841308594 -6.697999954223633,121.58599853515625 C-2.561000108718872,125.30699920654297 0.11400000005960464,130.3800048828125 0.843999981880188,135.8939971923828 C1.6150000095367432,130.21800231933594 4.435999870300293,125.01799774169922 8.776000022888184,121.2750015258789 C13.114999771118164,117.53199768066406 18.674999237060547,115.50399780273438 24.408000946044922,115.57099914550781 C35.83599853515625,115.57099914550781 44.70199966430664,125.66899871826172 46.68899917602539,136.5570068359375 C46.68899917602539,136.5570068359375 72.68800354003906,63.332000732421875 72.68800354003906,63.332000732421875 C74.48799896240234,58.430999755859375 77.9530029296875,54.319000244140625 82.47699737548828,51.70899963378906 C87.00199890136719,49.099998474121094 92.29900360107422,48.1609992980957 97.44599914550781,49.055999755859375 C102.59200286865234,49.95000076293945 107.26100158691406,52.62099838256836 110.63800048828125,56.60300064086914 C114.01599884033203,60.58599853515625 115.88700103759766,65.6259994506836 115.9260025024414,70.84600067138672 C115.9260025024414,70.84600067138672 115.9260025024414,71.52999877929688 115.9260025024414,71.52999877929688 C115.9260025024414,71.52999877929688 92.76899719238281,240.28799438476562 92.76899719238281,240.28799438476562 C92.76899719238281,240.28799438476562 245.8769989013672,256.1929931640625 245.8769989013672,256.1929931640625 C245.8769989013672,256.1929931640625 247.26499938964844,256.1929931640625 247.26499938964844,256.1929931640625 C247.9029998779297,256.27301025390625 248.5500030517578,256.27301025390625 249.18699645996094,256.1929931640625 C263.072998046875,255.76499938964844 272.5379943847656,241.9320068359375 272.5379943847656,224.83200073242188 C272.5379943847656,224.83200073242188 272.5379943847656,-220.8780059814453 272.5379943847656,-220.8780059814453 C272.5159912109375,-243.7209930419922 250.66299438476562,-256.4230041503906 234.25599670410156,-247.52099609375 C234.25599670410156,-247.52099609375 234.25599670410156,-247.52099609375 234.25599670410156,-247.52099609375 C234.25599670410156,-247.52099609375 0.37400001287460327,-140.77999877929688 0.37400001287460327,-140.77999877929688 C0.37400001287460327,-140.77999877929688 -233.50799560546875,-247.52099609375 -233.50799560546875,-247.52099609375 C-249.9149932861328,-256.4230041503906 -272.5379943847656,-243.63600158691406 -272.5379943847656,-220.77200317382812 C-272.5379943847656,-220.77200317382812 -272.5379943847656,224.91700744628906 -272.5379943847656,224.91700744628906 C-272.5379943847656,241.99600219726562 -262.30499267578125,255.9149932861328 -248.41900634765625,256.3420104980469 C-247.781005859375,256.4230041503906 -247.13499450683594,256.4230041503906 -246.4969940185547,256.3420104980469 C-246.4969940185547,256.3420104980469 -245.10800170898438,256.3420104980469 -245.10800170898438,256.3420104980469 C-245.10800170898438,256.3420104980469 -105.64900207519531,241.8719940185547 -92.77799987792969,240.53599548339844"></path></g></g></g></g></svg>